<svg width="64" height="64" viewBox="0 0 64 64" fill="none" xmlns="http://www.w3.org/2000/svg">
<path d="M40.5862 30.0396C15.3978 25.883 39.1414 32.4141 28.8778 32.0032C18.6143 31.5923 -5.39362 27.9172 3.41863 28.5517C31.5805 31.4163 12.5146 24.8816 22.7782 25.2925C33.0417 25.7033 41.0147 27.8287 40.5862 30.0396Z" fill="#022DC1"/>
<path d="M51.0155 29.5241C47.7875 32.4577 35.4903 25.1136 35.2778 28.3495C35.0653 31.5854 57.9374 54.6902 59.7646 60.9444C63.7822 74.6965 56.7567 37.2751 48.1986 35.8012C46.0052 35.4234 58.844 22.4095 51.0155 29.5241Z" fill="#022DC1"/>
<path d="M41.3824 29.8616C36.6807 29.4177 36.8313 32.8992 36.9878 28.9767C37.1442 25.0542 57.9774 12.8037 60.3247 4.65327C65.7496 -14.1829 58.0076 30.8894 42.1378 28.6192C39.6313 28.2606 49.627 30.6401 41.3824 29.8616Z" fill="#022DC1"/>
<path d="M10.7989 29.3748C9.53585 19.3206 4.89708 33.7041 3.15464 32.4025C1.4122 31.1009 0.450778 28.926 1.00725 27.5448C1.56372 26.1637 5.29856 21.4547 7.041 22.7563C78.1742 24.9256 10.1485 20.8016 10.7989 29.3748Z" fill="#022DC1"/>
</svg>
